<svg width="43" height="38" viewBox="0 0 43 38" fill="none" xmlns="http://www.w3.org/2000/svg">
<path d="M24.7592 0.930109C24.419 1.29832 24.2279 1.79745 24.2279 2.31786C24.2279 2.83827 24.419 3.3374 24.7592 3.70561L36.7997 16.719H1.81697C1.33508 16.719 0.872924 16.9259 0.532176 17.2942C0.191428 17.6625 -3.39308e-07 18.162 -3.39308e-07 18.6828C-3.39308e-07 19.2036 0.191428 19.7031 0.532176 20.0714C0.872924 20.4397 1.33508 20.6466 1.81697 20.6466H36.7997L24.7592 33.66C24.5201 33.9 24.3452 34.2054 24.2531 34.5438C24.161 34.8822 24.1551 35.2412 24.2359 35.583C24.3168 35.9247 24.4814 36.2366 24.7125 36.4857C24.9436 36.7348 25.2326 36.912 25.549 36.9985C25.8649 37.0857 26.1966 37.0794 26.5095 36.9804C26.8224 36.8813 27.1048 36.6931 27.3272 36.4355L42.4686 20.0706C42.8089 19.7023 43 19.2032 43 18.6828C43 18.1624 42.8089 17.6633 42.4686 17.2951L27.3272 0.930109C26.9865 0.562355 26.5247 0.355793 26.0432 0.355793C25.5617 0.355793 25.0999 0.562355 24.7592 0.930109Z" fill="black"/>
</svg>
