<svg width="40" height="41" viewBox="0 0 40 41" xmlns="http://www.w3.org/2000/svg">
<g clip-path="url(#clip0_16_44)">
<path d="M40 20.3398C40 9.29415 31.0457 0.339844 20 0.339844C8.9543 0.339844 0 9.29415 0 20.3398C0 31.3855 8.9543 40.3398 20 40.3398C31.0457 40.3398 40 31.3855 40 20.3398Z"/>
<path d="M21.2806 28.5872V21.0742H23.8152L24.1919 18.1326H21.2806V16.259C21.2806 15.4101 21.5171 14.829 22.7353 14.829H24.279V12.2064C23.5279 12.1259 22.773 12.087 22.0176 12.09C19.7773 12.09 18.2391 13.4576 18.2391 15.9684V18.1271H15.721V21.0687H18.2446V28.5872H21.2806Z" fill="white"/>
</g>
<defs>
<clipPath id="clip0_16_44">
<rect width="40" height="40" fill="white" transform="translate(0 0.339844)"/>
</clipPath>
</defs>
</svg>
