<svg width="40" height="41" viewBox="0 0 40 41"xmlns="http://www.w3.org/2000/svg">
<g clip-path="url(#clip0_16_34)">
<path d="M40 20.3398C40 9.29415 31.0457 0.339844 20 0.339844C8.9543 0.339844 0 9.29415 0 20.3398C0 31.3855 8.9543 40.3398 20 40.3398C31.0457 40.3398 40 31.3855 40 20.3398Z"/>
<mask id="mask0_16_34" style="mask-type:luminance" maskUnits="userSpaceOnUse" x="8" y="10" width="22" height="23">
<path d="M30 10.3398H8V32.3398H30V10.3398Z" fill="white"/>
</mask>
<g mask="url(#mask0_16_34)">
<path fill-rule="evenodd" clip-rule="evenodd" d="M29.4958 15.7923C29.648 15.2918 29.4958 14.9233 28.7671 14.9233H26.3608C25.7485 14.9233 25.4662 15.2414 25.3131 15.5925C25.3131 15.5925 24.0893 18.5221 22.3559 20.4251C21.7949 20.977 21.5401 21.152 21.2339 21.152C21.0808 21.152 20.8508 20.977 20.8508 20.4755V15.7923C20.8508 15.191 20.6821 14.9233 20.1724 14.9233H16.3884C16.0062 14.9233 15.7761 15.202 15.7761 15.4669C15.7761 16.0361 16.6433 16.1681 16.7322 17.7705V21.252C16.7322 22.0155 16.5919 22.154 16.2857 22.154C15.4699 22.154 13.4853 19.2105 12.3074 15.8427C12.0792 15.1873 11.8482 14.9233 11.2331 14.9233H8.825C8.1375 14.9233 8 15.2414 8 15.5925C8 16.2176 8.81583 19.3233 11.7996 23.4309C13.7888 26.2359 16.5892 27.7566 19.1403 27.7566C20.6702 27.7566 20.859 27.4193 20.859 26.8372V24.717C20.859 24.0414 21.0038 23.9066 21.4888 23.9066C21.8463 23.9066 22.4577 24.0826 23.8858 25.4347C25.5175 27.038 25.7861 27.7566 26.7046 27.7566H29.1108C29.7983 27.7566 30.143 27.4193 29.945 26.752C29.7268 26.0883 28.9477 25.1249 27.9146 23.9818C27.3536 23.331 26.5121 22.6297 26.2563 22.2786C25.8998 21.8285 26.0015 21.6278 26.2563 21.2272C26.2563 21.2272 29.1906 17.17 29.4958 15.7923Z" fill="white"/>
</g>
</g>
<defs>
<clipPath id="clip0_16_34">
<rect width="40" height="40" fill="white" transform="translate(0 0.339844)"/>
</clipPath>
</defs>
</svg>
