<svg width="40" height="41" viewBox="0 0 40 41" xmlns="http://www.w3.org/2000/svg">
<g clip-path="url(#clip0_16_41)">
<path d="M40 20.3398C40 9.29415 31.0457 0.339844 20 0.339844C8.9543 0.339844 0 9.29415 0 20.3398C0 31.3855 8.9543 40.3398 20 40.3398C31.0457 40.3398 40 31.3855 40 20.3398Z"/>
<path fill-rule="evenodd" clip-rule="evenodd" d="M15.465 9.40633C16.638 9.35233 17.012 9.34033 20 9.34033C22.988 9.34033 23.362 9.35333 24.534 9.40633C25.706 9.45933 26.506 9.64633 27.206 9.91733C27.939 10.1943 28.604 10.6273 29.154 11.1873C29.714 11.7363 30.146 12.4003 30.422 13.1343C30.694 13.8343 30.88 14.6343 30.934 15.8043C30.988 16.9793 31 17.3533 31 20.3403C31 23.3283 30.987 23.7023 30.934 24.8753C30.881 26.0453 30.694 26.8453 30.422 27.5453C30.146 28.2794 29.7133 28.9445 29.154 29.4943C28.604 30.0543 27.939 30.4863 27.206 30.7623C26.506 31.0343 25.706 31.2203 24.536 31.2743C23.362 31.3283 22.988 31.3403 20 31.3403C17.012 31.3403 16.638 31.3273 15.465 31.2743C14.295 31.2213 13.495 31.0343 12.795 30.7623C12.0609 30.4863 11.3958 30.0535 10.846 29.4943C10.2864 28.945 9.85331 28.2802 9.577 27.5463C9.306 26.8463 9.12 26.0463 9.066 24.8763C9.012 23.7013 9 23.3273 9 20.3403C9 17.3523 9.013 16.9783 9.066 15.8063C9.119 14.6343 9.306 13.8343 9.577 13.1343C9.85372 12.4004 10.2871 11.7356 10.847 11.1863C11.396 10.6268 12.0605 10.1938 12.794 9.91733C13.494 9.64633 14.294 9.46033 15.464 9.40633H15.465ZM24.445 11.3863C23.285 11.3333 22.937 11.3223 20 11.3223C17.063 11.3223 16.715 11.3333 15.555 11.3863C14.482 11.4353 13.9 11.6143 13.512 11.7653C12.999 11.9653 12.632 12.2023 12.247 12.5873C11.882 12.9423 11.6012 13.3746 11.425 13.8523C11.274 14.2403 11.095 14.8223 11.046 15.8953C10.993 17.0553 10.982 17.4033 10.982 20.3403C10.982 23.2773 10.993 23.6253 11.046 24.7853C11.095 25.8583 11.274 26.4403 11.425 26.8283C11.601 27.3053 11.882 27.7383 12.247 28.0933C12.602 28.4583 13.035 28.7393 13.512 28.9153C13.9 29.0663 14.482 29.2453 15.555 29.2943C16.715 29.3473 17.062 29.3583 20 29.3583C22.938 29.3583 23.285 29.3473 24.445 29.2943C25.518 29.2453 26.1 29.0663 26.488 28.9153C27.001 28.7153 27.368 28.4783 27.753 28.0933C28.118 27.7383 28.399 27.3053 28.575 26.8283C28.726 26.4403 28.905 25.8583 28.954 24.7853C29.007 23.6253 29.018 23.2773 29.018 20.3403C29.018 17.4033 29.007 17.0553 28.954 15.8953C28.905 14.8223 28.726 14.2403 28.575 13.8523C28.375 13.3393 28.138 12.9723 27.753 12.5873C27.3979 12.2224 26.9657 11.9415 26.488 11.7653C26.1 11.6143 25.518 11.4353 24.445 11.3863ZM18.595 23.7313C19.3797 24.0579 20.2534 24.102 21.0669 23.856C21.8805 23.61 22.5834 23.0892 23.0556 22.3825C23.5278 21.6759 23.7401 20.8272 23.656 19.9814C23.572 19.1356 23.197 18.3453 22.595 17.7453C22.2112 17.3618 21.7472 17.0681 21.2363 16.8854C20.7255 16.7028 20.1804 16.6356 19.6405 16.6889C19.1006 16.7422 18.5792 16.9145 18.1138 17.1934C17.6485 17.4724 17.2507 17.851 16.9493 18.3021C16.6479 18.7532 16.4502 19.2656 16.3705 19.8022C16.2908 20.3389 16.3312 20.8866 16.4885 21.4058C16.6459 21.925 16.9165 22.4029 17.2807 22.805C17.645 23.2071 18.0938 23.5235 18.595 23.7313ZM16.002 16.3423C16.527 15.8173 17.1503 15.4008 17.8363 15.1166C18.5223 14.8325 19.2575 14.6863 20 14.6863C20.7425 14.6863 21.4777 14.8325 22.1637 15.1166C22.8497 15.4008 23.473 15.8173 23.998 16.3423C24.523 16.8673 24.9395 17.4906 25.2236 18.1766C25.5078 18.8626 25.654 19.5978 25.654 20.3403C25.654 21.0828 25.5078 21.818 25.2236 22.504C24.9395 23.19 24.523 23.8133 23.998 24.3383C22.9377 25.3986 21.4995 25.9943 20 25.9943C18.5005 25.9943 17.0623 25.3986 16.002 24.3383C14.9417 23.278 14.346 21.8398 14.346 20.3403C14.346 18.8407 14.9417 17.4026 16.002 16.3423ZM26.908 15.5283C27.0381 15.4056 27.1423 15.258 27.2143 15.0943C27.2863 14.9306 27.3248 14.7541 27.3274 14.5752C27.33 14.3964 27.2967 14.2188 27.2295 14.0531C27.1622 13.8874 27.0624 13.7368 26.936 13.6103C26.8095 13.4839 26.6589 13.384 26.4932 13.3168C26.3275 13.2496 26.1499 13.2163 25.9711 13.2189C25.7922 13.2215 25.6157 13.2599 25.452 13.332C25.2883 13.404 25.1407 13.5082 25.018 13.6383C24.7793 13.8913 24.6486 14.2274 24.6537 14.5752C24.6588 14.923 24.7992 15.2552 25.0452 15.5011C25.2911 15.7471 25.6233 15.8875 25.9711 15.8926C26.3189 15.8977 26.655 15.767 26.908 15.5283Z" fill="white"/>
</g>
<defs>
<clipPath id="clip0_16_41">
<rect width="40" height="40" fill="white" transform="translate(0 0.339844)"/>
</clipPath>
</defs>
</svg>
