<svg width="20" height="22" viewBox="0 0 20 22" fill="none" xmlns="http://www.w3.org/2000/svg">
<path d="M14.3333 12.2167C14.3333 13.8525 12.86 15.185 10.6283 17.2108L10 17.785L9.37167 17.2108C7.14 15.185 5.66667 13.8525 5.66667 12.2167C5.66667 10.8842 6.7175 9.83333 8.05 9.83333C8.80833 9.83333 9.52333 10.18 10 10.7325C10.4767 10.18 11.1917 9.83333 11.95 9.83333C13.2825 9.83333 14.3333 10.8842 14.3333 12.2167ZM19.75 4.41667V19.5833C19.75 20.7858 18.7858 21.75 17.5833 21.75H2.41667C1.84203 21.75 1.29093 21.5217 0.884602 21.1154C0.478273 20.7091 0.25 20.158 0.25 19.5833V4.41667C0.25 3.225 1.225 2.25 2.41667 2.25H3.5V0.0833359H5.66667V2.25H14.3333V0.0833359H16.5V2.25H17.5833C18.158 2.25 18.7091 2.47828 19.1154 2.8846C19.5217 3.29093 19.75 3.84203 19.75 4.41667ZM2.41667 4.41667V6.58334H17.5833V4.41667H2.41667ZM17.5833 19.5833V8.75H2.41667V19.5833H17.5833Z" fill="#849573"/>
</svg>
